<?xml version="1.0" encoding="UTF-8" standalone="no"?>
<svg
   clip-rule="evenodd"
   fill-rule="evenodd"
   stroke-linejoin="round"
   stroke-miterlimit="2"
   viewBox="0 0 48 48"
   version="1.1"
   id="svg7"
   sodipodi:docname="display.svg"
   inkscape:version="1.3.2 (091e20ef0f, 2023-11-25)"
   xmlns:inkscape="http://www.inkscape.org/namespaces/inkscape"
   xmlns:sodipodi="http://sodipodi.sourceforge.net/DTD/sodipodi-0.dtd"
   xmlns="http://www.w3.org/2000/svg"
   xmlns:svg="http://www.w3.org/2000/svg">
  <defs
     id="defs7" />
  <sodipodi:namedview
     id="namedview7"
     pagecolor="#ffffff"
     bordercolor="#000000"
     borderopacity="0.25"
     inkscape:showpageshadow="2"
     inkscape:pageopacity="0.0"
     inkscape:pagecheckerboard="0"
     inkscape:deskcolor="#d1d1d1"
     inkscape:zoom="9.2291667"
     inkscape:cx="24"
     inkscape:cy="24"
     inkscape:window-width="1280"
     inkscape:window-height="649"
     inkscape:window-x="1280"
     inkscape:window-y="0"
     inkscape:window-maximized="1"
     inkscape:current-layer="svg7" />
  <linearGradient
     id="a"
     x2="1"
     gradientTransform="matrix(0 -10.6328 10.6328 0 945.782 54.7328)"
     gradientUnits="userSpaceOnUse">
    <stop
       stop-color="#6b6b6b"
       offset="0"
       id="stop1" />
    <stop
       stop-color="#474747"
       offset="1"
       id="stop2" />
  </linearGradient>
  <linearGradient
     id="b"
     x2="1"
     gradientTransform="matrix(0 -31.5475 27.6386 0 436.556 33.8791)"
     gradientUnits="userSpaceOnUse">
    <stop
       stop-color="#0084b6"
       offset="0"
       id="stop3" />
    <stop
       stop-color="#02eeff"
       offset="1"
       id="stop4" />
  </linearGradient>
  <path
     transform="matrix(.75 0 0 .75 0 5.32088)"
     d="m24.462 40.093h15.076v7.9h-15.076z"
     fill="url(#a)"
     fill-rule="nonzero"
     id="path4" />
  <path
     transform="matrix(1 0 0 1.13354 -.019583 -8.62106)"
     d="m35.789 43.478c0-.574-.528-1.039-1.178-1.039h-21.184c-.65 0-1.178.465-1.178 1.039v1.151c0 .573.528 1.039 1.178 1.039h21.184c.65 0 1.178-.466 1.178-1.039z"
     fill="#a4a4a4"
     id="path5" />
  <g
     transform="translate(0 2.52247)"
     id="g7">
    <path
       d="m39.44 33.88h-30.88c-3.438 0-6.228-2.79-6.228-6.228v-19.092c0-3.438 2.79-6.228 6.228-6.228h30.88c3.438 0 6.228 2.79 6.228 6.228v19.092c0 3.438-2.79 6.228-6.228 6.228z"
       fill="url(#b)"
       id="path6" />
    <path
       d="m39.44 33.88h-30.88c-3.438 0-6.228-2.79-6.228-6.228v-19.092c0-3.438 2.79-6.228 6.228-6.228h30.88c3.438 0 6.228 2.79 6.228 6.228v19.092c0 3.438-2.79 6.228-6.228 6.228zm0-1c2.886 0 5.228-2.342 5.228-5.228v-19.092c0-2.886-2.342-5.228-5.228-5.228h-30.88c-2.886 0-5.228 2.342-5.228 5.228v19.092c0 2.886 2.342 5.228 5.228 5.228z"
       fill="#3e3e3e"
       id="path7"
       style="fill:#222933;fill-opacity:1" />
  </g>
</svg>
