<?xml version="1.0" encoding="UTF-8" standalone="no"?>
<svg
   style="clip-rule:evenodd;fill-rule:evenodd;stroke-linejoin:round;stroke-miterlimit:2"
   viewBox="0 0 48 48"
   version="1.1"
   id="svg4"
   sodipodi:docname="disk-quota-low.svg"
   inkscape:version="1.3.2 (091e20ef0f, 2023-11-25)"
   xmlns:inkscape="http://www.inkscape.org/namespaces/inkscape"
   xmlns:sodipodi="http://sodipodi.sourceforge.net/DTD/sodipodi-0.dtd"
   xmlns="http://www.w3.org/2000/svg"
   xmlns:svg="http://www.w3.org/2000/svg">
  <sodipodi:namedview
     id="namedview4"
     pagecolor="#ffffff"
     bordercolor="#000000"
     borderopacity="0.25"
     inkscape:showpageshadow="2"
     inkscape:pageopacity="0.0"
     inkscape:pagecheckerboard="0"
     inkscape:deskcolor="#d1d1d1"
     inkscape:zoom="9.2291667"
     inkscape:cx="24"
     inkscape:cy="24"
     inkscape:window-width="1280"
     inkscape:window-height="649"
     inkscape:window-x="1280"
     inkscape:window-y="0"
     inkscape:window-maximized="1"
     inkscape:current-layer="svg4" />
  <g
     transform="matrix(.75 0 0 .75 0 -3.55271e-15)"
     id="g1">
    <path
       d="m61.122 15.88c0-2.762-2.239-5-5-5h-48.244c-2.761 0-5 2.238-5 5v32.246c0 2.761 2.239 5 5 5h48.244c2.761 0 5-2.239 5-5v-32.246z"
       style="fill:#cd4f4c;fill-opacity:1"
       id="path1" />
  </g>
  <g
     transform="matrix(.75 0 0 .75 0 -3.55271e-15)"
     id="g2">
    <path
       d="m61.122 20.652c0-1.326-0.527-2.598-1.465-3.536-0.938-0.937-2.209-1.464-3.535-1.464h-25.58c-1.232 0-2.42-0.455-3.337-1.277-0.768-0.689-1.713-1.535-2.481-2.224-0.917-0.822-2.105-1.277-3.337-1.277h-13.509c-1.326 0-2.597 0.527-3.535 1.465-0.938 0.937-1.465 2.209-1.465 3.535v32.252c0 2.761 2.239 5 5 5h48.244c2.761 0 5-2.239 5-5v-27.474z"
       style="fill:url(#_Linear1)"
       id="path2" />
  </g>
  <g
     transform="matrix(3,0,0,3,-1.54874,-5.1213)"
     id="g3">
    <path
       d="m16 8.848c-0.42-0.606-5.143-0.656-5.785 0v6.303c0.774 1.123 5.045 1.141 5.785 0v-6.303zm-2.879 2.384c0.844 0 1.809-0.166 2.401-0.356 0.012 0.272 0 1.095 0 1.201 0 0.289-1.076 0.524-2.401 0.524s-2.401-0.235-2.401-0.524v-1.257c0.43 0.208 1.604 0.412 2.401 0.412zm-0.013-2.212c1.335 0 2.419 0.204 2.419 0.455s-1.084 0.455-2.419 0.455c-1.336 0-2.42-0.204-2.42-0.455s1.084-0.455 2.42-0.455z"
       style="fill:#ffffff;fill-opacity:1"
       id="path3" />
  </g>
  <defs
     id="defs4">
    <linearGradient
       id="_Linear1"
       x2="1"
       gradientTransform="matrix(2.54933e-15,-41.6338,41.6338,2.54933e-15,897.879,52.7218)"
       gradientUnits="userSpaceOnUse">
      <stop
         style="stop-color:#30a19a;stop-opacity:1;"
         offset="0"
         id="stop3" />
      <stop
         style="stop-color:#58a184;stop-opacity:1;"
         offset="1"
         id="stop4" />
    </linearGradient>
  </defs>
</svg>
