<?xml version="1.0" encoding="UTF-8" standalone="no"?>
<svg
   style="clip-rule:evenodd;fill-rule:evenodd;stroke-linejoin:round;stroke-miterlimit:2"
   viewBox="0 0 48 48"
   version="1.1"
   id="svg5"
   sodipodi:docname="disk-quota-critical.svg"
   inkscape:version="1.3.2 (091e20ef0f, 2023-11-25)"
   xmlns:inkscape="http://www.inkscape.org/namespaces/inkscape"
   xmlns:sodipodi="http://sodipodi.sourceforge.net/DTD/sodipodi-0.dtd"
   xmlns="http://www.w3.org/2000/svg"
   xmlns:svg="http://www.w3.org/2000/svg">
  <sodipodi:namedview
     id="namedview5"
     pagecolor="#ffffff"
     bordercolor="#000000"
     borderopacity="0.25"
     inkscape:showpageshadow="2"
     inkscape:pageopacity="0.0"
     inkscape:pagecheckerboard="0"
     inkscape:deskcolor="#d1d1d1"
     inkscape:zoom="9.2291667"
     inkscape:cx="24"
     inkscape:cy="24"
     inkscape:window-width="1280"
     inkscape:window-height="649"
     inkscape:window-x="1280"
     inkscape:window-y="0"
     inkscape:window-maximized="1"
     inkscape:current-layer="svg5" />
  <g
     transform="matrix(.75 0 0 .75 0 -7.10543e-15)"
     id="g1">
    <path
       d="m61.122 15.88c0-2.762-2.239-5-5-5h-48.244c-2.761 0-5 2.238-5 5v32.246c0 2.761 2.239 5 5 5h48.244c2.761 0 5-2.239 5-5v-32.246z"
       style="fill:#cd4f4c;fill-opacity:1"
       id="path1" />
  </g>
  <g
     transform="matrix(.75 0 0 .75 0 -7.10543e-15)"
     id="g2">
    <path
       d="m61.122 20.652c0-1.326-0.527-2.598-1.465-3.536-0.938-0.937-2.209-1.464-3.535-1.464h-25.58c-1.232 0-2.42-0.455-3.337-1.277-0.768-0.689-1.713-1.535-2.481-2.224-0.917-0.822-2.105-1.277-3.337-1.277h-13.509c-1.326 0-2.597 0.527-3.535 1.465-0.938 0.937-1.465 2.209-1.465 3.535v32.252c0 2.761 2.239 5 5 5h48.244c2.761 0 5-2.239 5-5v-27.474z"
       style="fill:url(#_Linear1)"
       id="path2" />
  </g>
  <g
     transform="matrix(2.09887,0,0,1.88026,21.9848,17.2743)"
     id="g3">
    <path
       d="m11.657 2.206c-0.601-0.967-7.351-1.046-8.268 0v10.057c1.105 1.792 7.211 1.82 8.268 0v-10.057zm-4.134 0.047c1.909 0 3.458 0.325 3.458 0.725 0 0.401-1.549 0.726-3.458 0.726s-3.458-0.325-3.458-0.726c0-0.4 1.549-0.725 3.458-0.725z"
       style="fill:#ffffff;fill-opacity:1"
       id="path3" />
  </g>
  <g
     transform="matrix(26.5621,0,0,26.5621,19.6837,35.0359)"
     id="g4">
    <path
       d="m0.206-0.225h-0.087l-0.02-0.435c0-0.074 0.126-0.074 0.126 0l-0.019 0.435zm-0.043 0.081c0.021 0 0.04 7e-3 0.055 0.022s0.022 0.033 0.022 0.056-7e-3 0.041-0.022 0.055c-0.015 0.015-0.034 0.022-0.055 0.022-0.022 0-0.04-7e-3 -0.055-0.022-0.015-0.014-0.023-0.032-0.023-0.055s8e-3 -0.041 0.023-0.056 0.033-0.022 0.055-0.022z"
       style="fill-rule:nonzero;fill:#ffffff;fill-opacity:1"
       id="path4" />
  </g>
  <defs
     id="defs5">
    <linearGradient
       id="_Linear1"
       x2="1"
       gradientTransform="matrix(2.54933e-15,-41.6338,41.6338,2.54933e-15,897.879,52.7218)"
       gradientUnits="userSpaceOnUse">
      <stop
         style="stop-color:#30a19a;stop-opacity:1;"
         offset="0"
         id="stop4" />
      <stop
         style="stop-color:#58a184;stop-opacity:1;"
         offset="1"
         id="stop5" />
    </linearGradient>
  </defs>
</svg>
