<?xml version="1.0" encoding="UTF-8" standalone="no"?>
<svg
   clip-rule="evenodd"
   fill-rule="evenodd"
   stroke-linejoin="round"
   stroke-miterlimit="2"
   viewBox="0 0 48 48"
   version="1.1"
   id="svg5"
   sodipodi:docname="certificate-server.svg"
   inkscape:version="1.3.2 (091e20ef0f, 2023-11-25)"
   xmlns:inkscape="http://www.inkscape.org/namespaces/inkscape"
   xmlns:sodipodi="http://sodipodi.sourceforge.net/DTD/sodipodi-0.dtd"
   xmlns="http://www.w3.org/2000/svg"
   xmlns:svg="http://www.w3.org/2000/svg">
  <defs
     id="defs5" />
  <sodipodi:namedview
     id="namedview5"
     pagecolor="#ffffff"
     bordercolor="#000000"
     borderopacity="0.25"
     inkscape:showpageshadow="2"
     inkscape:pageopacity="0.0"
     inkscape:pagecheckerboard="0"
     inkscape:deskcolor="#d1d1d1"
     inkscape:zoom="9.2291667"
     inkscape:cx="24"
     inkscape:cy="24"
     inkscape:window-width="1280"
     inkscape:window-height="649"
     inkscape:window-x="1280"
     inkscape:window-y="0"
     inkscape:window-maximized="1"
     inkscape:current-layer="svg5" />
  <linearGradient
     id="a"
     x2="1"
     gradientTransform="matrix(0 -31.2259 31.2259 0 256.671 39.5416)"
     gradientUnits="userSpaceOnUse">
    <stop
       stop-color="#009179"
       offset="0"
       id="stop1"
       style="stop-color:#30a19a;stop-opacity:1;" />
    <stop
       stop-color="#00e4c7"
       offset="1"
       id="stop2"
       style="stop-color:#58a184;stop-opacity:1;" />
  </linearGradient>
  <path
     d="m45.841 11.91c0-2.072-1.679-3.75-3.75-3.75h-36.183c-2.07 0-3.75 1.678-3.75 3.75v24.185c0 2.07 1.68 3.75 3.75 3.75h36.183c2.071 0 3.75-1.68 3.75-3.75z"
     fill="#009fa6"
     id="path2"
     style="fill:#cd4f4c;fill-opacity:1" />
  <path
     d="m45.841 15.489c0-.995-.395-1.948-1.098-2.652-.704-.703-1.657-1.098-2.652-1.098h-19.185c-.924 0-1.815-.341-2.502-.958-.576-.516-1.285-1.151-1.861-1.668-.688-.616-1.579-.957-2.503-.957h-10.131c-.995 0-1.948.395-2.652 1.098-.703.703-1.098 1.657-1.098 2.652v24.189c0 2.07 1.679 3.75 3.75 3.75h36.182c2.071 0 3.75-1.68 3.75-3.75z"
     fill="url(#a)"
     id="path3" />
  <g
     fill="#007d69"
     id="g5"
     style="fill:#ffffff;fill-opacity:1">
    <path
       transform="matrix(1.30917 0 0 1.31823 13.4965 14.0432)"
       d="m3.246 8h9.568v5.908h-9.568z"
       id="path4"
       style="fill:#ffffff;fill-opacity:1" />
    <path
       transform="matrix(1.1972 0 0 1.1972 14.4224 15.3118)"
       d="m12 6.996c.53.002 1.038.213 1.412.588.377.376.588.886.588 1.418v3.991c0 .532-.211 1.043-.588 1.419-.376.376-.886.588-1.418.588h-7.988c-.532 0-1.042-.212-1.418-.588-.377-.376-.588-.887-.588-1.419v-3.991c0-.532.211-1.042.588-1.418.374-.375.882-.586 1.412-.588v-1.996c0-2.216 1.784-4 4-4s4 1.784 4 4zm-6 0h4v-2.119c0-1.108-.892-2-2-2s-2 .892-2 2zm7 2.006c0-.266-.106-.522-.295-.711-.188-.189-.444-.295-.711-.295h-7.988c-.267 0-.523.106-.711.295-.189.189-.295.445-.295.711v3.991c0 .267.106.523.295.712.188.188.444.295.711.295h7.988c.267 0 .523-.107.711-.295.189-.189.295-.445.295-.712z"
       id="path5"
       style="fill:#ffffff;fill-opacity:1" />
  </g>
</svg>
