<?xml version="1.0" encoding="UTF-8" standalone="no"?>
<svg
   clip-rule="evenodd"
   fill-rule="evenodd"
   stroke-linejoin="round"
   stroke-miterlimit="2"
   viewBox="0 0 48 48"
   version="1.1"
   id="svg4"
   sodipodi:docname="folder-pictures-open.svg"
   inkscape:version="1.3.2 (091e20ef0f, 2023-11-25)"
   xmlns:inkscape="http://www.inkscape.org/namespaces/inkscape"
   xmlns:sodipodi="http://sodipodi.sourceforge.net/DTD/sodipodi-0.dtd"
   xmlns="http://www.w3.org/2000/svg"
   xmlns:svg="http://www.w3.org/2000/svg">
  <defs
     id="defs4" />
  <sodipodi:namedview
     id="namedview4"
     pagecolor="#ffffff"
     bordercolor="#000000"
     borderopacity="0.25"
     inkscape:showpageshadow="2"
     inkscape:pageopacity="0.0"
     inkscape:pagecheckerboard="0"
     inkscape:deskcolor="#d1d1d1"
     inkscape:zoom="9.2291667"
     inkscape:cx="24"
     inkscape:cy="24"
     inkscape:window-width="1280"
     inkscape:window-height="649"
     inkscape:window-x="1280"
     inkscape:window-y="0"
     inkscape:window-maximized="1"
     inkscape:current-layer="svg4" />
  <linearGradient
     id="a"
     x2="1"
     gradientTransform="matrix(0 -41.6345 43.2221 0 352.618 52.7215)"
     gradientUnits="userSpaceOnUse">
    <stop
       stop-color="#009179"
       offset="0"
       id="stop1"
       style="stop-color:#30a19a;stop-opacity:1;" />
    <stop
       stop-color="#00e4c7"
       offset="1"
       id="stop2"
       style="stop-color:#58a184;stop-opacity:1;" />
  </linearGradient>
  <path
     transform="scale(.75)"
     d="m61.122 15.88c0-2.762-2.239-5-5-5h-48.244c-2.761 0-5 2.238-5 5v32.246c0 2.761 2.239 5 5 5h48.244c2.761 0 5-2.239 5-5z"
     fill="#009fa6"
     id="path2"
     style="fill:#cd4f4c;fill-opacity:1" />
  <path
     transform="scale(.75)"
     d="m58.91 20.652c-.09-1.326-.704-2.598-1.706-3.536-1.002-.937-2.309-1.464-3.635-1.464h-25.58c-1.232 0-2.451-.455-3.424-1.277-.814-.689-1.817-1.535-2.632-2.224-.973-.822-2.192-1.277-3.424-1.277h-13.509c-1.326 0-2.561.527-3.435 1.465-.874.937-1.315 2.209-1.224 3.535l2.196 32.252c.188 2.761 2.58 5 5.341 5h48.244c2.761 0 4.847-2.239 4.659-5z"
     fill="url(#a)"
     id="path3" />
  <path
     transform="matrix(.75 0 0 .75 -.635027 -.055219)"
     d="m29.046 24.449c.379-.519.983-.827 1.626-.827h5.826c.621 0 1.208.287 1.589.778.323.416.722.928 1.053 1.353.415.534 1.054.845 1.73.842 1.046-.004 1.233-.011 2.414-.016.406-.001.797.159 1.085.446s.45.677.45 1.083v12.929c0 .405-.161.794-.448 1.081s-.676.448-1.081.448h-22.58c-.405 0-.794-.161-1.081-.448s-.448-.676-.448-1.081v-12.935c0-.406.161-.795.448-1.081.287-.287.676-.448 1.081-.448h5.677c.697 0 1.351-.333 1.762-.895.285-.391.617-.846.897-1.229zm2.954 4.347c-3.031 0-5.492 2.461-5.492 5.492s2.461 5.492 5.492 5.492 5.492-2.461 5.492-5.492-2.461-5.492-5.492-5.492zm6.537-.757c-.701 0-1.269.568-1.269 1.269s.568 1.268 1.269 1.268c.7 0 1.268-.567 1.268-1.268s-.568-1.269-1.268-1.269zm-12.404-3.573v.841c0 .232-.189.42-.42.42h-3.445c-.232 0-.42-.188-.42-.42v-.841c0-.233.188-.42.42-.42h3.445c.231 0 .42.187.42.42z"
     fill="#007d69"
     id="path4"
     style="fill:#ffffff;fill-opacity:1" />
</svg>
