<?xml version="1.0" encoding="UTF-8" standalone="no"?>
<svg
   clip-rule="evenodd"
   fill-rule="evenodd"
   stroke-linejoin="round"
   stroke-miterlimit="2"
   viewBox="0 0 48 48"
   version="1.1"
   id="svg4"
   sodipodi:docname="folder-steam.svg"
   inkscape:version="1.3.2 (091e20ef0f, 2023-11-25)"
   xmlns:inkscape="http://www.inkscape.org/namespaces/inkscape"
   xmlns:sodipodi="http://sodipodi.sourceforge.net/DTD/sodipodi-0.dtd"
   xmlns="http://www.w3.org/2000/svg"
   xmlns:svg="http://www.w3.org/2000/svg">
  <defs
     id="defs4" />
  <sodipodi:namedview
     id="namedview4"
     pagecolor="#ffffff"
     bordercolor="#000000"
     borderopacity="0.25"
     inkscape:showpageshadow="2"
     inkscape:pageopacity="0.0"
     inkscape:pagecheckerboard="0"
     inkscape:deskcolor="#d1d1d1"
     inkscape:zoom="9.2291667"
     inkscape:cx="24"
     inkscape:cy="24"
     inkscape:window-width="1280"
     inkscape:window-height="649"
     inkscape:window-x="1280"
     inkscape:window-y="0"
     inkscape:window-maximized="1"
     inkscape:current-layer="svg4" />
  <linearGradient
     id="a"
     x2="1"
     gradientTransform="matrix(0 -31.2259 28.4027 0 25.0182 39.5416)"
     gradientUnits="userSpaceOnUse">
    <stop
       stop-color="#009179"
       offset="0"
       id="stop1"
       style="stop-color:#30a19a;stop-opacity:1;" />
    <stop
       stop-color="#00e4c7"
       offset="1"
       id="stop2"
       style="stop-color:#58a184;stop-opacity:1;" />
  </linearGradient>
  <path
     d="m45.841 11.91c0-2.072-1.679-3.75-3.75-3.75h-36.183c-2.07 0-3.75 1.678-3.75 3.75v24.185c0 2.07 1.68 3.75 3.75 3.75h36.183c2.071 0 3.75-1.68 3.75-3.75z"
     fill="#009fa6"
     id="path2"
     style="fill:#cd4f4c;fill-opacity:1" />
  <path
     d="m45.841 15.489c0-.995-.395-1.948-1.098-2.652-.704-.703-1.657-1.098-2.652-1.098h-19.185c-.924 0-1.815-.341-2.502-.958-.576-.516-1.285-1.151-1.861-1.668-.688-.616-1.579-.957-2.503-.957h-10.131c-.995 0-1.948.395-2.652 1.098-.703.703-1.098 1.657-1.098 2.652v24.189c0 2.07 1.679 3.75 3.75 3.75h36.182c2.071 0 3.75-1.68 3.75-3.75z"
     fill="url(#a)"
     id="path3" />
  <path
     d="m13.279 27.602 4.031 2.328c-.007.092-.011.185-.011.278 0 2.22 1.8 4.02 4.02 4.02 2.221 0 4.021-1.8 4.021-4.02-.003-.184-.017-.366-.044-.547l4.875-3.482c2.533-.076 4.547-2.15 4.55-4.683 0-2.589-2.1-4.689-4.69-4.689-2.591 0-4.692 2.1-4.691 4.708l-3.111 4.782c-.298-.071-.603-.109-.909-.11-.607.001-1.206.141-1.752.406l-6.288-3.63m16.751-4.817c1.85 0 3.35 1.5 3.35 3.35 0 1.851-1.5 3.351-3.35 3.351-1.851 0-3.35-1.5-3.35-3.351 0-1.85 1.499-3.35 3.35-3.35zm0 1.34c-1.11 0-2.011.901-2.011 2.01 0 1.11.901 2.011 2.011 2.011 1.109 0 2.01-.901 2.01-2.011 0-1.109-.901-2.01-2.01-2.01zm-8.711 8.041c1.481 0 2.68 1.199 2.68 2.681 0 1.48-1.199 2.679-2.68 2.679-1.278-.001-2.377-.906-2.625-2.158l.945.547c.964.555 2.188.228 2.745-.736.556-.965.229-2.189-.735-2.746l-.453-.262c.041-.002.081-.003.123-.005z"
     fill="#007d69"
     fill-rule="nonzero"
     id="path4"
     style="fill:#ffffff;fill-opacity:1" />
</svg>
