<?xml version="1.0" encoding="UTF-8" standalone="no"?>
<svg
   clip-rule="evenodd"
   fill-rule="evenodd"
   stroke-linejoin="round"
   stroke-miterlimit="2"
   viewBox="0 0 48 48"
   version="1.1"
   id="svg4"
   sodipodi:docname="folder-private.svg"
   inkscape:version="1.3.2 (091e20ef0f, 2023-11-25)"
   xmlns:inkscape="http://www.inkscape.org/namespaces/inkscape"
   xmlns:sodipodi="http://sodipodi.sourceforge.net/DTD/sodipodi-0.dtd"
   xmlns="http://www.w3.org/2000/svg"
   xmlns:svg="http://www.w3.org/2000/svg">
  <defs
     id="defs4" />
  <sodipodi:namedview
     id="namedview4"
     pagecolor="#ffffff"
     bordercolor="#000000"
     borderopacity="0.25"
     inkscape:showpageshadow="2"
     inkscape:pageopacity="0.0"
     inkscape:pagecheckerboard="0"
     inkscape:deskcolor="#d1d1d1"
     inkscape:zoom="9.2291667"
     inkscape:cx="24"
     inkscape:cy="24"
     inkscape:window-width="1280"
     inkscape:window-height="649"
     inkscape:window-x="1280"
     inkscape:window-y="0"
     inkscape:window-maximized="1"
     inkscape:current-layer="svg4" />
  <linearGradient
     id="a"
     x2="1"
     gradientTransform="matrix(0 -31.2259 28.4027 0 25.0182 39.5416)"
     gradientUnits="userSpaceOnUse">
    <stop
       stop-color="#009179"
       offset="0"
       id="stop1"
       style="stop-color:#30a19a;stop-opacity:1;" />
    <stop
       stop-color="#00e4c7"
       offset="1"
       id="stop2"
       style="stop-color:#58a184;stop-opacity:1;" />
  </linearGradient>
  <path
     d="m45.841 11.91c0-2.072-1.679-3.75-3.75-3.75h-36.183c-2.07 0-3.75 1.678-3.75 3.75v24.185c0 2.07 1.68 3.75 3.75 3.75h36.183c2.071 0 3.75-1.68 3.75-3.75z"
     fill="#009fa6"
     id="path2"
     style="fill:#cd4f4c;fill-opacity:1" />
  <path
     d="m45.841 15.489c0-.995-.395-1.948-1.098-2.652-.704-.703-1.657-1.098-2.652-1.098h-19.185c-.924 0-1.815-.341-2.502-.958-.576-.516-1.285-1.151-1.861-1.668-.688-.616-1.579-.957-2.503-.957h-10.131c-.995 0-1.948.395-2.652 1.098-.703.703-1.098 1.657-1.098 2.652v24.189c0 2.07 1.679 3.75 3.75 3.75h36.182c2.071 0 3.75-1.68 3.75-3.75z"
     fill="url(#a)"
     id="path3" />
  <path
     d="m19.311 18.66c-2.95 0-5.34 2.39-5.34 5.34s2.39 5.34 5.34 5.34c2.26 0 4.274-1.43 5.027-3.56h3.873v1.894c0 .242.096.474.268.646.171.171.403.267.645.267h1.734c.242 0 .474-.096.645-.267.172-.172.268-.404.268-.646v-1.894h2.258v-3.56h-9.692c-.753-2.131-2.766-3.56-5.026-3.56zm0 3.56c.982 0 1.78.797 1.78 1.78 0 .982-.798 1.78-1.78 1.78-.983 0-1.78-.798-1.78-1.78 0-.983.797-1.78 1.78-1.78z"
     fill="#007d69"
     fill-rule="nonzero"
     id="path4"
     style="fill:#ffffff;fill-opacity:1" />
</svg>
