<?xml version="1.0" encoding="UTF-8" standalone="no"?>
<svg
   clip-rule="evenodd"
   fill-rule="evenodd"
   stroke-linejoin="round"
   stroke-miterlimit="2"
   viewBox="0 0 48 48"
   version="1.1"
   id="svg4"
   sodipodi:docname="folder-music.svg"
   inkscape:version="1.3.2 (091e20ef0f, 2023-11-25)"
   xmlns:inkscape="http://www.inkscape.org/namespaces/inkscape"
   xmlns:sodipodi="http://sodipodi.sourceforge.net/DTD/sodipodi-0.dtd"
   xmlns="http://www.w3.org/2000/svg"
   xmlns:svg="http://www.w3.org/2000/svg">
  <defs
     id="defs4" />
  <sodipodi:namedview
     id="namedview4"
     pagecolor="#ffffff"
     bordercolor="#000000"
     borderopacity="0.25"
     inkscape:showpageshadow="2"
     inkscape:pageopacity="0.0"
     inkscape:pagecheckerboard="0"
     inkscape:deskcolor="#d1d1d1"
     inkscape:zoom="9.2291667"
     inkscape:cx="24"
     inkscape:cy="24"
     inkscape:window-width="1280"
     inkscape:window-height="649"
     inkscape:window-x="1280"
     inkscape:window-y="0"
     inkscape:window-maximized="1"
     inkscape:current-layer="svg4" />
  <linearGradient
     id="a"
     x2="1"
     gradientTransform="matrix(0 -31.2259 28.4027 0 25.0182 39.5416)"
     gradientUnits="userSpaceOnUse">
    <stop
       stop-color="#009179"
       offset="0"
       id="stop1"
       style="stop-color:#30a19a;stop-opacity:1;" />
    <stop
       stop-color="#00e4c7"
       offset="1"
       id="stop2"
       style="stop-color:#58a184;stop-opacity:1;" />
  </linearGradient>
  <path
     d="m45.841 11.91c0-2.072-1.679-3.75-3.75-3.75h-36.183c-2.07 0-3.75 1.678-3.75 3.75v24.185c0 2.07 1.68 3.75 3.75 3.75h36.183c2.071 0 3.75-1.68 3.75-3.75z"
     fill="#009fa6"
     id="path2"
     style="fill:#cd4f4c;fill-opacity:1" />
  <path
     d="m45.841 15.489c0-.995-.395-1.948-1.098-2.652-.704-.703-1.657-1.098-2.652-1.098h-19.185c-.924 0-1.815-.341-2.502-.958-.576-.516-1.285-1.151-1.861-1.668-.688-.616-1.579-.957-2.503-.957h-10.131c-.995 0-1.948.395-2.652 1.098-.703.703-1.098 1.657-1.098 2.652v24.189c0 2.07 1.679 3.75 3.75 3.75h36.182c2.071 0 3.75-1.68 3.75-3.75z"
     fill="url(#a)"
     id="path3" />
  <path
     d="m18.098 29.95v-.008s.305-.064.619-.131c.397-.084.681-.434.681-.84v-10.454c0-.408.287-.76.687-.842 1.835-.374 6.841-1.395 8.831-1.802.204-.041.415.011.577.143.161.131.255.328.256.536l.033 13.696c.006.399-.108.795-.328 1.136-.294.452-.756.769-1.283.881-.41.087-.842.179-1.251.266-.527.112-1.079.009-1.531-.285-.452-.293-.769-.755-.881-1.283-.017-.078-.034-.157-.05-.235-.113-.528-.01-1.079.284-1.531s.755-.77 1.283-.882c.41-.087.841-.179 1.25-.266.066-.013.131-.024.197-.031l.576-.116c.401-.081.689-.434.689-.843v-6.128c0-.175-.079-.34-.214-.451s-.313-.156-.485-.121c-1.568.314-5.353 1.074-6.913 1.387-.401.081-.69.433-.69.843v9.564c.011.408-.102.813-.327 1.16-.294.452-.756.769-1.284.881-.409.087-.84.179-1.25.266-.528.112-1.078.009-1.531-.284-.453-.294-.77-.756-.882-1.284-.016-.078-.033-.157-.05-.235-.112-.529-.01-1.079.284-1.531s.756-.77 1.284-.882c.409-.087.84-.179 1.25-.266.056-.012.113-.021.169-.028z"
     fill="#007d69"
     id="path4"
     style="fill:#ffffff;fill-opacity:1" />
</svg>
