<?xml version="1.0" encoding="UTF-8" standalone="no"?>
<svg
   clip-rule="evenodd"
   fill-rule="evenodd"
   stroke-linejoin="round"
   stroke-miterlimit="2"
   viewBox="0 0 48 48"
   version="1.1"
   id="svg4"
   sodipodi:docname="folder-games.svg"
   inkscape:version="1.3.2 (091e20ef0f, 2023-11-25)"
   xmlns:inkscape="http://www.inkscape.org/namespaces/inkscape"
   xmlns:sodipodi="http://sodipodi.sourceforge.net/DTD/sodipodi-0.dtd"
   xmlns="http://www.w3.org/2000/svg"
   xmlns:svg="http://www.w3.org/2000/svg">
  <defs
     id="defs4" />
  <sodipodi:namedview
     id="namedview4"
     pagecolor="#ffffff"
     bordercolor="#000000"
     borderopacity="0.25"
     inkscape:showpageshadow="2"
     inkscape:pageopacity="0.0"
     inkscape:pagecheckerboard="0"
     inkscape:deskcolor="#d1d1d1"
     inkscape:zoom="9.2291667"
     inkscape:cx="24"
     inkscape:cy="24"
     inkscape:window-width="1280"
     inkscape:window-height="649"
     inkscape:window-x="1280"
     inkscape:window-y="0"
     inkscape:window-maximized="1"
     inkscape:current-layer="svg4" />
  <linearGradient
     id="a"
     x2="1"
     gradientTransform="matrix(0 -31.2259 28.4027 0 25.0182 39.5416)"
     gradientUnits="userSpaceOnUse">
    <stop
       stop-color="#009179"
       offset="0"
       id="stop1"
       style="stop-color:#30a19a;stop-opacity:1;" />
    <stop
       stop-color="#00e4c7"
       offset="1"
       id="stop2"
       style="stop-color:#58a184;stop-opacity:1;" />
  </linearGradient>
  <path
     d="m45.841 11.91c0-2.072-1.679-3.75-3.75-3.75h-36.183c-2.07 0-3.75 1.678-3.75 3.75v24.185c0 2.07 1.68 3.75 3.75 3.75h36.183c2.071 0 3.75-1.68 3.75-3.75z"
     fill="#009fa6"
     id="path2"
     style="fill:#cd4f4c;fill-opacity:1" />
  <path
     d="m45.841 15.489c0-.995-.395-1.948-1.098-2.652-.704-.703-1.657-1.098-2.652-1.098h-19.185c-.924 0-1.815-.341-2.502-.958-.576-.516-1.285-1.151-1.861-1.668-.688-.616-1.579-.957-2.503-.957h-10.131c-.995 0-1.948.395-2.652 1.098-.703.703-1.098 1.657-1.098 2.652v24.189c0 2.07 1.679 3.75 3.75 3.75h36.182c2.071 0 3.75-1.68 3.75-3.75z"
     fill="url(#a)"
     id="path3" />
  <path
     d="m17.623 15.474c-.366.002-.788.118-1.219.365-1.57.883-3.015 3.777-3.799 7.529-.669 3.187-.913 7.542-.515 9.294.347 1.507.946 2.175 2.013 2.175 1.583-.029 3.574-1.913 4.834-4.449.912-1.403 3.025-2.042 5.063-1.971 2.038-.077 4.151.568 5.063 1.971 1.26 2.535 3.251 4.419 4.834 4.449 1.067 0 1.666-.668 2.013-2.175.398-1.752.154-6.107-.515-9.294-.784-3.752-2.229-6.646-3.799-7.529-.43-.247-.826-.366-1.191-.365-.364.002-.697.125-1.011.365-.798.608-2.461 1.26-5.394 1.262s-4.596-.654-5.394-1.262c-.314-.24-.617-.367-.983-.365zm.326 3.631h2.42v2.42h2.421v2.42h-2.421v2.42h-2.42v-2.42h-2.42v-2.42h2.42zm10.892 0c.668 0 1.21.542 1.21 1.209 0 .669-.542 1.211-1.21 1.211-.669 0-1.21-.542-1.21-1.21s.541-1.21 1.21-1.21zm-2.421 2.42c.669 0 1.211.542 1.211 1.21s-.542 1.21-1.211 1.21c-.668 0-1.209-.542-1.209-1.21s.541-1.21 1.209-1.21zm4.841 0c.668 0 1.21.542 1.21 1.21s-.542 1.21-1.21 1.21-1.21-.542-1.21-1.21.542-1.21 1.21-1.21zm-2.42 2.42c.668 0 1.21.543 1.21 1.211 0 .667-.542 1.21-1.21 1.21-.669 0-1.21-.543-1.21-1.21 0-.668.541-1.211 1.21-1.211z"
     fill="#007d69"
     fill-rule="nonzero"
     id="path4"
     style="fill:#ffffff;fill-opacity:1" />
</svg>
