<?xml version="1.0" encoding="UTF-8" standalone="no"?>
<svg
   clip-rule="evenodd"
   fill-rule="evenodd"
   stroke-linejoin="round"
   stroke-miterlimit="2"
   viewBox="0 0 48 48"
   version="1.1"
   id="svg4"
   sodipodi:docname="folder_html.svg"
   inkscape:version="1.3.2 (091e20ef0f, 2023-11-25)"
   xmlns:inkscape="http://www.inkscape.org/namespaces/inkscape"
   xmlns:sodipodi="http://sodipodi.sourceforge.net/DTD/sodipodi-0.dtd"
   xmlns="http://www.w3.org/2000/svg"
   xmlns:svg="http://www.w3.org/2000/svg">
  <defs
     id="defs4" />
  <sodipodi:namedview
     id="namedview4"
     pagecolor="#ffffff"
     bordercolor="#000000"
     borderopacity="0.25"
     inkscape:showpageshadow="2"
     inkscape:pageopacity="0.0"
     inkscape:pagecheckerboard="0"
     inkscape:deskcolor="#d1d1d1"
     inkscape:zoom="9.2291667"
     inkscape:cx="24"
     inkscape:cy="24"
     inkscape:window-width="1280"
     inkscape:window-height="649"
     inkscape:window-x="1280"
     inkscape:window-y="0"
     inkscape:window-maximized="1"
     inkscape:current-layer="svg4" />
  <linearGradient
     id="a"
     x2="1"
     gradientTransform="matrix(0 -31.2259 31.2259 0 256.671 39.5416)"
     gradientUnits="userSpaceOnUse">
    <stop
       stop-color="#009179"
       offset="0"
       id="stop1"
       style="stop-color:#30a19a;stop-opacity:1;" />
    <stop
       stop-color="#00e4c7"
       offset="1"
       id="stop2"
       style="stop-color:#58a184;stop-opacity:1;" />
  </linearGradient>
  <path
     d="m45.841 11.91c0-2.072-1.679-3.75-3.75-3.75h-36.183c-2.07 0-3.75 1.678-3.75 3.75v24.185c0 2.07 1.68 3.75 3.75 3.75h36.183c2.071 0 3.75-1.68 3.75-3.75z"
     fill="#009fa6"
     id="path2"
     style="fill:#cd4f4c;fill-opacity:1" />
  <path
     d="m45.841 15.489c0-.995-.395-1.948-1.098-2.652-.704-.703-1.657-1.098-2.652-1.098h-19.185c-.924 0-1.815-.341-2.502-.958-.576-.516-1.285-1.151-1.861-1.668-.688-.616-1.579-.957-2.503-.957h-10.131c-.995 0-1.948.395-2.652 1.098-.703.703-1.098 1.657-1.098 2.652v24.189c0 2.07 1.679 3.75 3.75 3.75h36.182c2.071 0 3.75-1.68 3.75-3.75z"
     fill="url(#a)"
     id="path3" />
  <path
     transform="scale(.75)"
     d="m32 18.536c-.52 0-1.044.043-1.55.094-1.013.103-1.97.272-2.913.564-4.713 1.46-8.453 5.199-9.912 9.912-.292.943-.462 1.9-.564 2.913-.051.507-.094 1.03-.094 1.55 0 .521.043 1.044.094 1.551.102 1.013.272 1.97.564 2.912 1.459 4.713 5.199 8.453 9.912 9.913.943.292 1.9.461 2.913.563.506.051 1.03.094 1.55.094s1.044-.043 1.55-.094c1.013-.102 1.97-.271 2.913-.563.941-.293 1.873-.712 2.725-1.175 3.408-1.847 6.019-4.967 7.187-8.738.292-.942.462-1.899.564-2.912.051-.507.094-1.03.094-1.551 0-.519-.043-1.045-.094-1.55-.102-1.013-.272-1.97-.564-2.913-.584-1.885-1.548-3.636-2.771-5.12-.307-.371-.647-.694-.987-1.034-1.359-1.358-2.945-2.482-4.745-3.241-.449-.19-.938-.371-1.409-.517-.943-.292-1.9-.461-2.913-.564-.506-.051-1.03-.094-1.55-.094zm0 1.504c2.275 0 4.413.558 6.295 1.55.05.026.092.067.141.094.038.05.027.104.094.141.049.027.095.069.141.094.079.044.157.111.141.188-.022.112-.206.106-.282.188.01.158-.053.128-.094.234.025.069.083.06.094.141-.014.088-.127.098-.094.188.148.115.283.019.423 0 .306-.038.563.007.751-.141-.019-.117.092-.15.141-.234.1.069.184.162.282.234-.057.025-.183.062-.235.094-.076.052-.1.131-.188.188-.062.044-.216.188-.281.188-.08 0-.225-.066-.282-.047-.082.025-.048.155-.141.188-.181.066-.501-.176-.564.094.077.156.333.103.47.188.085.055.213.33.235.423.021.076.032.341 0 .423-.085.218-.313.193-.564.187-.068 0-.125.006-.188 0-.424-.027-.842-.162-1.033.141.013.233.052.362 0 .564-.039.148-.197.248-.188.376.003.066.124.192.141.282.01.049-.022.144 0 .188.071.134.25-.022.375 0 .121.019.235.195.235.329 0 .095-.034.283-.094.375-.12.181-.344.137-.516.235-.143.082-.198.281-.282.423-.09.153-.177.204-.141.423-.123.243-.263.399-.517.517-.074.032-.167.091-.235.141-.055.038-.111.1-.188.188-.095.106-.23.152-.282.234-.038.063-.006.198-.047.282-.06.115-.158.214-.235.329-.035.055-.102.117-.141.188-.087.159-.204.283-.187.423.013.134.179.164.187.282.008.065-.049.117-.046.188.003.103.038.153.046.234.02.203-.102.284-.14.423-.019.066.016.136 0 .188-.033.101-.186.162-.188.282-.003.085.133.162.141.282.006.082-.064.158-.047.235.03.147.308.355.422.47.156.155.308.258.376.422.058.14.082.366.188.47.079.077.228.109.329.188.096.074.228.109.329.188.167.131.392.395.658.376.139-.011.267-.067.422-.094.162-.027.353-.11.517-.094.126.013.245.102.376.094.137-.008.314-.073.47-.141.27-.118.687-.339 1.08-.282.301.044.307.383.517.517.24.022.419-.047.611 0 .145.035.315.308.329.423.013.117-.078.208-.094.282-.039.158-.067.368-.094.469-.022.08-.05.156-.047.235 0 .071.114.236.188.329.09.115.219.203.328.329.2.229.284.542.423.846.036.076-.033.092 0 .187-.06.46-.216.761-.517 1.269-.142.164-.284.359-.281.564-.011.491.256.746.234 1.221-.049.639.003.739-.046 1.08.215.11.109.431.046.658-.092.271-.183.337-.234.517.112.048.206.061.328.047-2.461 2.559-5.94 4.134-9.771 4.134-1.793 0-3.507-.353-5.074-.987-.005-.002.006-.044 0-.046.142-.061.413.105.517-.095.052-.095-.068-.28 0-.375.049-.066.369-.125.47-.141.145-.025.294.005.376-.047.09-.058.204-.207.188-.376-.008-.079-.079-.117-.141-.188-.052-.06-.012-.133-.047-.188-.066-.095-.161-.142-.188-.282.197-.038.467.22.752.141.133-.038.359-.297.422-.423.019-.038-.022-.188 0-.234.025-.052.086-.067.094-.094.019-.074-.016-.095 0-.141.049-.14.2-.228.282-.329.063-.077.131-.156.188-.235.066-.085.097-.114.141-.188.041-.249-.154-.439-.094-.658.066-.246.42-.404.658-.516.082-.039.166-.117.235-.141.164-.058.363-.04.516-.094.257-.093.344-.376.47-.611.06-.109.13-.203.141-.282.011-.071-.013-.153 0-.235.014-.082.025-.145.047-.235.03-.117.047-.338.047-.47 0-.109-.044-.136-.047-.234-.019-.356.104-.37.235-.564.065-.096.095-.261.141-.329.221-.328.591-.489.564-.987-.011-.163-.068-.511-.188-.563-.069-.03-.228-.009-.329-.047-.323-.12-.557-.49-.893-.517-.071-.003-.108.003-.188 0-.131-.003-.275-.125-.422-.141-.093-.01-.275.027-.329 0-.085-.041-.073-.188-.141-.235-.055-.038-.15-.064-.235-.094-.134-.052-.22-.083-.376-.094-.049-.003-.18.008-.235 0-.085-.013-.156-.092-.235-.141-.098-.06-.147-.103-.188-.188.091-.295-.221-.344-.281-.516-.028-.08.027-.211 0-.282-.036-.101-.123-.15-.235-.235-.197-.153-.377-.293-.658-.329-.126-.013-.273.011-.423 0-.158-.011-.349-.098-.47-.235-.115-.134-.133-.266-.235-.329-.095-.06-.263-.078-.328-.141-.031-.027-.02-.078-.047-.141-.05-.098-.154-.114-.094-.234-.11-.055-.071.068-.188.047-.107-.151-.183-.235-.423-.188-.109.021-.2.185-.329.188-.107.003-.189-.169-.329-.188-.106-.014-.255.11-.329.094-.117-.022-.128-.164-.235-.235-.079-.052-.238-.191-.281-.188-.137.003-.235.289-.423.188-.093-.118.156-.126.047-.235-.082-.082-.122.003-.188.047-.077.052-.15.111-.235.141-.189.071-.322.064-.47.141-.136.071-.155.189-.235.328-.062.115-.186.277-.282.282-.114.008-.225-.144-.328-.188-.315-.136-.492.092-.752.094-.241.003-.575-.384-.564-.61.008-.14.078-.345.094-.517.014-.137.139-.25.141-.376.003-.167-.266-.31-.376-.329-.257-.046-.6.115-.892 0-.055-.093.108-.144.141-.235.019-.051-.019-.083 0-.141.032-.087.147-.142.188-.234.03-.072.016-.195.047-.282.035-.099.132-.164.14-.235.011-.093-.067-.222-.14-.282-.227.013-.386.034-.517.094-.295.134-.219.518-.517.611-.101.032-.261.074-.376.094.195-.984.498-1.925.893-2.819.104.019.191.086.282.094.251.019.262-.173.469-.282.214.03.323-.022.517 0 .131.013.319.18.423.188.087.003.106-.108.188-.094.082.013.221.183.235.282.013.123-.083.239-.047.376.128.131.38.205.564.281.12-.098.019-.327 0-.469-.003-.063.007-.131 0-.188-.014-.099-.047-.197-.047-.282 0-.391.301-.552.563-.705.112-.065.231-.185.329-.235.14-.068.214-.075.329-.141.208-.117.402-.241.564-.375.074-.178-.008-.389 0-.564.074-.047.108.007.188 0 .125-.028.163-.211.235-.282.041-.041.185-.053.234-.094.126-.098.126-.238.235-.282.039-.013.128-.03.188-.047.082-.022.198-.094.329-.141.085-.03.296-.014.329-.047.041-.041-.011-.219 0-.282.065-.308.523-.319.799-.422.191-.074.397-.229.61-.188-.041.147-.223.104-.188.282.047.248.336-.059.423-.094.167-.071.486-.109.705-.188.191-.069.509-.202.329-.423-.151-.011-.198.133-.329.188-.09.013-.112-.042-.188-.047-.074-.003-.114.06-.188.047-.074-.014-.177-.148-.188-.235-.03-.23.236-.3.329-.47-.063-.208-.342-.012-.517-.094.019-.123.09-.257.235-.282.118-.019.399.037.47.094.041.036-.016.131.047.188.071.063.189.014.282 0 .032-.156-.216-.087-.188-.188.186-.12.525-.064.751-.094.132-.019.259-.125.376-.188.11-.062.214-.15.329-.047.033.112-.078.178-.141.235-.21.186-.4.395-.564.611.102.098.254.028.423.047.066.008.167.036.235.047.082.014.169-.014.235 0 .115.027.12.188.235.188.186 0 .201-.156.094-.282.033-.128.093-.239.047-.329-.085-.169-.407.028-.423-.188-.01-.136.139-.178.188-.282-.022-.262.215-.279.188-.516-.014-.099-.12-.095-.188-.188-.036-.049-.053-.153-.094-.188-.142-.12-.406-.099-.423-.329-.007-.137.019-.228 0-.376-.019-.139-.161-.536-.282-.564-.153-.032-.239.245-.423.329-.098.047-.274.066-.375.047-.066-.013-.18-.062-.188-.188-.007-.072.016-.098.047-.141.007-.01-.008-.036 0-.047 1.189-.341 2.459-.516 3.758-.516zm-5.59 1.221c-.134.427-.52.671-1.034.658-.126.12-.073.35-.141.517-.057.139-.236.245-.376.234-.101-.007-.282-.139-.282-.234 0-.079.076-.167.094-.235.554-.358 1.134-.665 1.739-.94zm11.509.47c-.05.009-.096.021-.141.047-.104.063-.108.158-.188.188-.112.041-.265.04-.281.141-.014.084.096.111.093.188-.041.101-.119.111-.14.234.139.227.485.003.657-.046.077-.022.147.012.188-.047.047-.074.012-.225.047-.329.038-.115.155-.087.141-.188-.011-.101-.206-.205-.376-.188zm-14.892 1.738c.1.121.184.297 0 .376-.027.013-.357.061-.423.047-.02-.003-.028-.034-.047-.047.144-.14.32-.243.47-.376zm.376.47c.066.003.111.135.188.141.074.006.191-.061.235-.047.115.03.156.244.047.329-.09.01-.123-.108-.188-.094-.186.032-.237.386-.376.375-.131-.013-.228-.28-.094-.375.003-.082-.052-.106-.047-.188.041-.052.126-.149.235-.141zm-.611.094c.039 0 .034-.017.047 0-.019.145-.076.166-.188.235-.194.117-.313.265-.375.516-.02.074-.236.301-.329.282-.216-.046.091-.454.141-.516.054-.069.125-.112.188-.188.062-.077.081-.239.14-.282.066-.047.262-.053.376-.047zm18.51.376c.216-.014.324.244.422.375.082.107.336.256.47.329.077.041.15.103.235.141.089.04.224.092.329.188s.184.242.188.329c.003.087-.061.153-.047.235.095.015.144-.081.188-.188.354.505.656 1.044.939 1.597-.057.036-.082.071-.094.141-.027.153.089.349-.141.376-.144.019-.317-.144-.516-.188-.082-.019-.217.022-.282 0-.15-.052-.107-.239-.235-.329-.074-.052-.258-.127-.376-.141-.074-.007-.111.011-.188 0-.093-.01-.252 0-.329-.047-.073-.046-.262-.125-.281-.188-.031-.101.229-.244.234-.328.006-.066-.08-.09-.094-.188-.01-.061.014-.15 0-.188-.019-.071-.122-.139-.234-.141-.099 0-.198.047-.282.047-.121.003-.367-.061-.517-.047-.09.007-.15.041-.235.047-.238.019-.378-.014-.564 0-.134.007-.391.083-.516.141-.063.03-.106.1-.188.141-.039.019-.092.025-.141.047-.077.035-.208.121-.282.141-.107.027-.229-.008-.423 0-.139.007-.373-.022-.376-.188-.003-.254.464-.145.705-.188.09-.019.125-.125.235-.188.052-.03.092-.061.141-.094.082-.058.221-.169.235-.235.01-.06-.056-.144-.047-.188.01-.057.114-.114.188-.188.114-.115.186-.255.328-.329.096-.052.285-.064.329-.141.011-.087-.003-.108 0-.188.06-.054.045-.083.094-.093.148-.033.298.055.47.046.074-.003.156.006.235-.046.065-.044.122-.109.188-.141.071-.039.147-.136.235-.141zm-17.241.141c.036-.006.097.004.141 0 .063-.003.119 0 .188 0 .068 0 .16-.028.187 0-.043.18-.468.112-.61.046.004-.034.058-.041.094-.046zm-.517.328c.046 0 .092-.019.141 0-.126.107-.298.167-.517.235-.104.033-.263.068-.282-.047-.022-.142.095-.127.188-.141.12-.013.331-.044.47-.047zm17.805 0c-.091.03-.134.211 0 .235.062-.038.063-.12.047-.235-.036-.038-.02-.01-.047 0zm-.047.376c-.044.014-.095-.002-.141.047.003.153.03.242 0 .376.087.169.285.068.329-.047.052-.284-.057-.411-.188-.376zm1.174.752c-.12-.006-.211.037-.282.094.101.164.29.194.517.235.082-.06.056-.225.094-.329-.099 0-.162.006-.282 0zm-23.865 5.778c.096.123.2.265.329.329.069.035.148.028.235.047.071.013.12.072.188.094.145.049.355.042.47.094.175.076.272.382.423.47.007.087-.028.169 0 .235.071.095.213.125.328.187.14.077.198.269.329.329.047.019.117-.021.188 0 .18.055.22.329.376.282.101-.03.125-.183.141-.282.068-.073.128-.188.235-.188.169-.003.219.21.282.376.035.093.116.184.141.282.041.17.035.651 0 .752-.044.125-.225.192-.329.329-.049.065-.103.144-.141.188-.066.081-.139.114-.188.187-.027.041-.023.131-.047.188-.082.175-.209.307-.141.517.027.085.141.181.141.282 0 .12-.263.151-.282.282-.013.095.111.294.141.423.022.095.177.172.235.235.095.106.194.239.282.375.172.265.253.586.422.846.091.134.269.234.329.376.03.071-.027.216 0 .282.099.221.578.454.799.563.104.052.186.087.282.141.145.082.443.248.517.376.065.115.108.381.141.564.041.24-.011.445 0 .705.007.142.047.233.047.375 0 .05.002.139 0 .188-.003.17.013.345 0 .517-.008.093-.007.203 0 .282.007.085.088.114.093.188.006.079-.102.172-.093.235.019.172.202.311.234.47.028.125.064.413.047.563-.01.079-.036.195-.047.282-.007.069.011.125 0 .188-3.745-2.406-6.248-6.586-6.248-11.369 0-.613.062-1.193.141-1.785zm5.168 1.363c.131-.061.106.171 0 .187-.101.014-.098-.141 0-.187z"
     fill="#007d69"
     fill-rule="nonzero"
     id="path4"
     style="fill:#ffffff;fill-opacity:1" />
</svg>
