<?xml version="1.0" encoding="UTF-8" standalone="no"?>
<svg
   clip-rule="evenodd"
   fill-rule="evenodd"
   stroke-linejoin="round"
   stroke-miterlimit="2"
   viewBox="0 0 48 48"
   version="1.1"
   id="svg4"
   sodipodi:docname="folder_pictures.svg"
   inkscape:version="1.3.2 (091e20ef0f, 2023-11-25)"
   xmlns:inkscape="http://www.inkscape.org/namespaces/inkscape"
   xmlns:sodipodi="http://sodipodi.sourceforge.net/DTD/sodipodi-0.dtd"
   xmlns="http://www.w3.org/2000/svg"
   xmlns:svg="http://www.w3.org/2000/svg">
  <defs
     id="defs4" />
  <sodipodi:namedview
     id="namedview4"
     pagecolor="#ffffff"
     bordercolor="#000000"
     borderopacity="0.25"
     inkscape:showpageshadow="2"
     inkscape:pageopacity="0.0"
     inkscape:pagecheckerboard="0"
     inkscape:deskcolor="#d1d1d1"
     inkscape:zoom="9.2291667"
     inkscape:cx="24"
     inkscape:cy="24"
     inkscape:window-width="1280"
     inkscape:window-height="649"
     inkscape:window-x="1280"
     inkscape:window-y="0"
     inkscape:window-maximized="1"
     inkscape:current-layer="svg4" />
  <linearGradient
     id="a"
     x2="1"
     gradientTransform="matrix(0 -31.2259 31.2259 0 256.671 39.5416)"
     gradientUnits="userSpaceOnUse">
    <stop
       stop-color="#009179"
       offset="0"
       id="stop1"
       style="stop-color:#30a19a;stop-opacity:1;" />
    <stop
       stop-color="#00e4c7"
       offset="1"
       id="stop2"
       style="stop-color:#58a184;stop-opacity:1;" />
  </linearGradient>
  <path
     d="m45.841 11.91c0-2.072-1.679-3.75-3.75-3.75h-36.183c-2.07 0-3.75 1.678-3.75 3.75v24.185c0 2.07 1.68 3.75 3.75 3.75h36.183c2.071 0 3.75-1.68 3.75-3.75z"
     fill="#009fa6"
     id="path2"
     style="fill:#cd4f4c;fill-opacity:1" />
  <path
     d="m45.841 15.489c0-.995-.395-1.948-1.098-2.652-.704-.703-1.657-1.098-2.652-1.098h-19.185c-.924 0-1.815-.341-2.502-.958-.576-.516-1.285-1.151-1.861-1.668-.688-.616-1.579-.957-2.503-.957h-10.131c-.995 0-1.948.395-2.652 1.098-.703.703-1.098 1.657-1.098 2.652v24.189c0 2.07 1.679 3.75 3.75 3.75h36.182c2.071 0 3.75-1.68 3.75-3.75z"
     fill="url(#a)"
     id="path3" />
  <path
     transform="scale(.75)"
     d="m29.046 24.449c.379-.519.983-.827 1.626-.827h5.826c.621 0 1.208.287 1.589.778.323.416.722.928 1.053 1.353.415.534 1.054.845 1.73.842 1.046-.004 1.233-.011 2.414-.016.406-.001.797.159 1.085.446s.45.677.45 1.083v12.929c0 .405-.161.794-.448 1.081s-.676.448-1.081.448h-22.58c-.405 0-.794-.161-1.081-.448s-.448-.676-.448-1.081v-12.935c0-.406.161-.795.448-1.081.287-.287.676-.448 1.081-.448h5.677c.697 0 1.351-.333 1.762-.895.285-.391.617-.846.897-1.229zm2.954 4.347c-3.031 0-5.492 2.461-5.492 5.492s2.461 5.492 5.492 5.492 5.492-2.461 5.492-5.492-2.461-5.492-5.492-5.492zm6.537-.757c-.701 0-1.269.568-1.269 1.269s.568 1.268 1.269 1.268c.7 0 1.268-.567 1.268-1.268s-.568-1.269-1.268-1.269zm-12.404-3.573v.841c0 .232-.189.42-.42.42h-3.445c-.232 0-.42-.188-.42-.42v-.841c0-.233.188-.42.42-.42h3.445c.231 0 .42.187.42.42z"
     fill="#007d69"
     id="path4"
     style="fill:#ffffff;fill-opacity:1" />
</svg>
