<svg clip-rule="evenodd" fill-rule="evenodd" stroke-linecap="round" stroke-linejoin="round" viewBox="0 0 48 48" xmlns="http://www.w3.org/2000/svg">
 <linearGradient id="a" x2="1" gradientTransform="matrix(0 -41.561 41.561 0 184.861 45.4308)" gradientUnits="userSpaceOnUse">
  <stop stop-color="#00927a" offset="0"/>
  <stop stop-color="#00927a" offset="1"/>
 </linearGradient>
 <linearGradient id="b" x2="1" gradientTransform="matrix(0 -25.3913 25.3913 0 524.25 45.1845)" gradientUnits="userSpaceOnUse">
  <stop stop-color="#009179" offset="0"/>
  <stop stop-color="#00e4c7" offset="1"/>
 </linearGradient>
 <radialGradient id="c" cx="0" cy="0" r="1" gradientTransform="matrix(0 -31.2636 -27.0664 0 23.9901 29.7001)" gradientUnits="userSpaceOnUse">
  <stop stop-color="#f8d07e" offset="0"/>
  <stop stop-color="#e3874f" offset=".26"/>
  <stop stop-color="#cd2400" offset=".66"/>
  <stop stop-color="#ff2500" offset="1"/>
 </radialGradient>
 <linearGradient id="d" x2="1" gradientTransform="matrix(0 20.1703 -20.1703 0 -1204.85 9.37271)" gradientUnits="userSpaceOnUse">
  <stop stop-color="#702810" offset="0"/>
  <stop stop-color="#a74518" offset="1"/>
 </linearGradient>
 <linearGradient id="e" x2="1" gradientTransform="matrix(0 -18.4354 18.4354 0 1133.77 27.4933)" gradientUnits="userSpaceOnUse">
  <stop stop-color="#fff" stop-opacity=".5" offset="0"/>
  <stop stop-color="#fff" stop-opacity=".11" offset=".01"/>
  <stop stop-color="#fff" stop-opacity=".5" offset=".47"/>
  <stop stop-color="#fff" stop-opacity="0" offset="1"/>
 </linearGradient>
 <linearGradient id="f" x2="1" gradientTransform="matrix(0 12.8839 -12.8839 0 -1493.1 32.5468)" gradientUnits="userSpaceOnUse">
  <stop stop-color="#00dec2" offset="0"/>
  <stop stop-color="#00927a" offset="1"/>
 </linearGradient>
 <path d="m45.14 34.093-42.289-.029v-14.106c0-.77.368-1.494.99-1.948 3.418-2.495 14.736-10.756 18.738-13.677.844-.616 1.99-.618 2.837-.004 4.002 2.901 15.303 11.093 18.727 13.576.626.453.997 1.179.997 1.952z" fill="url(#a)"/>
 <path d="m25.104 31.79c-.682.412-1.536.413-2.218.001-4.353-2.63-20.035-12.102-20.035-12.102v23.111c0 1.453 1.178 2.631 2.631 2.631h37.121c.673 0 1.318-.267 1.794-.743.475-.476.743-1.121.743-1.794v-23.231s-15.683 9.492-20.036 12.127z" fill="url(#b)"/>
 <path d="m33.008 19.037-9.031-10.781-8.985 10.781h3.874v8.881h10.268v-8.881z" fill="url(#c)" fill-rule="nonzero" stroke="url(#d)" stroke-width=".27"/>
 <g fill="none">
  <path d="m32.423 18.759-8.431-10.087-8.364 10.087h3.515v8.882h9.714v-8.882z" stroke="url(#e)" stroke-linecap="butt" stroke-linejoin="miter" stroke-width=".27"/>
  <path d="m3.901 44.609c-.499-.899-.517-1.814.524-2.355 3.114-1.618 15.485-8.194 18.768-9.94.501-.267 1.103-.266 1.604.003 3.255 1.744 15.45 8.281 18.544 9.937 1.232.66 1.397 1.784.865 2.355" stroke="url(#f)" stroke-miterlimit="1.5" stroke-width=".38"/>
 </g>
</svg>
