<?xml version="1.0" encoding="UTF-8" standalone="no"?>
<svg
   clip-rule="evenodd"
   fill-rule="evenodd"
   stroke-linejoin="round"
   stroke-miterlimit="2"
   viewBox="0 0 48 48"
   version="1.1"
   id="svg4"
   sodipodi:docname="folder-network.svg"
   inkscape:version="1.3.2 (091e20ef0f, 2023-11-25)"
   xmlns:inkscape="http://www.inkscape.org/namespaces/inkscape"
   xmlns:sodipodi="http://sodipodi.sourceforge.net/DTD/sodipodi-0.dtd"
   xmlns="http://www.w3.org/2000/svg"
   xmlns:svg="http://www.w3.org/2000/svg">
  <defs
     id="defs4" />
  <sodipodi:namedview
     id="namedview4"
     pagecolor="#ffffff"
     bordercolor="#000000"
     borderopacity="0.25"
     inkscape:showpageshadow="2"
     inkscape:pageopacity="0.0"
     inkscape:pagecheckerboard="0"
     inkscape:deskcolor="#d1d1d1"
     inkscape:zoom="9.2291667"
     inkscape:cx="24"
     inkscape:cy="24"
     inkscape:window-width="1280"
     inkscape:window-height="649"
     inkscape:window-x="1280"
     inkscape:window-y="0"
     inkscape:window-maximized="1"
     inkscape:current-layer="svg4" />
  <linearGradient
     id="a"
     x2="1"
     gradientTransform="matrix(0 -31.2259 28.4027 0 25.0182 39.5416)"
     gradientUnits="userSpaceOnUse">
    <stop
       stop-color="#009179"
       offset="0"
       id="stop1"
       style="stop-color:#30a19a;stop-opacity:1;" />
    <stop
       stop-color="#00e4c7"
       offset="1"
       id="stop2"
       style="stop-color:#58a184;stop-opacity:1;" />
  </linearGradient>
  <path
     d="m45.841 11.91c0-2.072-1.679-3.75-3.75-3.75h-36.183c-2.07 0-3.75 1.678-3.75 3.75v24.185c0 2.07 1.68 3.75 3.75 3.75h36.183c2.071 0 3.75-1.68 3.75-3.75z"
     fill="#009fa6"
     id="path2"
     style="fill:#cd4f4c;fill-opacity:1" />
  <path
     d="m45.841 15.489c0-.995-.395-1.948-1.098-2.652-.704-.703-1.657-1.098-2.652-1.098h-19.185c-.924 0-1.815-.341-2.502-.958-.576-.516-1.285-1.151-1.861-1.668-.688-.616-1.579-.957-2.503-.957h-10.131c-.995 0-1.948.395-2.652 1.098-.703.703-1.098 1.657-1.098 2.652v24.189c0 2.07 1.679 3.75 3.75 3.75h36.182c2.071 0 3.75-1.68 3.75-3.75z"
     fill="url(#a)"
     id="path3" />
  <path
     d="m22.237 31.982c0 .948.79 1.717 1.763 1.717s1.763-.77 1.763-1.717c-.298-2.438-3.469-1.816-3.526 0zm1.763-5.554c-1.898 0-3.69.816-4.916 2.237-.381.44-.321 1.098.132 1.468.2.165.444.245.687.245.306 0 .609-.127.82-.372.818-.949 2.013-1.493 3.277-1.493s2.458.544 3.277 1.493c.212.246.515.372.819.372.244 0 .488-.08.688-.245.454-.37.512-1.028.131-1.468-1.225-1.421-3.017-2.237-4.915-2.237zm0-4.586c-3.162 0-6.148 1.359-8.193 3.728-.38.441-.322 1.098.131 1.468.2.165.445.245.688.245.306 0 .609-.126.82-.372 1.636-1.896 4.026-2.985 6.554-2.985s4.917 1.089 6.554 2.985c.212.246.515.372.82.372.243 0 .487-.08.688-.245.453-.37.511-1.028.131-1.468-2.046-2.369-5.032-3.728-8.193-3.728zm11.47.804c-2.863-3.318-7.044-5.22-11.47-5.22-4.427 0-8.606 1.902-11.47 5.22-.381.441-.322 1.098.131 1.469.201.164.444.244.687.244.306 0 .609-.126.821-.372 2.455-2.844 6.038-4.476 9.831-4.476s7.376 1.631 9.831 4.476c.211.246.515.372.82.372.244 0 .488-.08.688-.245.452-.37.512-1.028.131-1.468z"
     fill="#007d69"
     fill-rule="nonzero"
     id="path4"
     style="fill:#ffffff;fill-opacity:1" />
</svg>
