<?xml version="1.0" encoding="UTF-8" standalone="no"?>
<svg
   clip-rule="evenodd"
   fill-rule="evenodd"
   stroke-linejoin="round"
   stroke-miterlimit="2"
   viewBox="0 0 48 48"
   version="1.1"
   id="svg3"
   sodipodi:docname="gnome-fs-blockdev.svg"
   inkscape:version="1.3.2 (091e20ef0f, 2023-11-25)"
   xmlns:inkscape="http://www.inkscape.org/namespaces/inkscape"
   xmlns:sodipodi="http://sodipodi.sourceforge.net/DTD/sodipodi-0.dtd"
   xmlns="http://www.w3.org/2000/svg"
   xmlns:svg="http://www.w3.org/2000/svg">
  <defs
     id="defs3" />
  <sodipodi:namedview
     id="namedview3"
     pagecolor="#ffffff"
     bordercolor="#000000"
     borderopacity="0.25"
     inkscape:showpageshadow="2"
     inkscape:pageopacity="0.0"
     inkscape:pagecheckerboard="0"
     inkscape:deskcolor="#d1d1d1"
     inkscape:zoom="9.2291667"
     inkscape:cx="24"
     inkscape:cy="24"
     inkscape:window-width="1280"
     inkscape:window-height="649"
     inkscape:window-x="1280"
     inkscape:window-y="0"
     inkscape:window-maximized="1"
     inkscape:current-layer="svg3" />
  <linearGradient
     id="a"
     x2="1"
     gradientTransform="matrix(-.0560321 -35.9955 28.6777 -.0446409 25.0742 42.0892)"
     gradientUnits="userSpaceOnUse">
    <stop
       stop-color="#009179"
       offset="0"
       id="stop1"
       style="stop-color:#30a19a;stop-opacity:1;" />
    <stop
       stop-color="#00e4c7"
       offset="1"
       id="stop2"
       style="stop-color:#58a184;stop-opacity:1;" />
  </linearGradient>
  <path
     d="m45.841 12.997c0-1.879-.747-3.682-2.075-5.011-1.329-1.329-3.132-2.075-5.012-2.075h-29.508c-1.88 0-3.682.746-5.011 2.075s-2.076 3.132-2.076 5.011v22.005c0 1.88.747 3.683 2.076 5.012s3.131 2.075 5.011 2.075h29.508c1.88 0 3.683-.746 5.012-2.075 1.328-1.329 2.075-3.132 2.075-5.011v-22.005z"
     fill="url(#a)"
     id="path2" />
  <path
     d="m11.834 17.459c.031-.003.063-.005.095-.005h3.442c.045 0 .089.003.133.01.096-.011.193-.003.286.024.186.053.343.179.437.348.576 1.045 1.745 3.163 2.628 4.764.884-1.601 2.053-3.719 2.629-4.764.094-.169.251-.295.437-.348.066-.019.134-.029.202-.029.031-.003.063-.005.095-.005h3.442c.045 0 .09.003.133.01.095-.011.193-.003.286.024.186.053.343.179.436.348.577 1.045 1.746 3.163 2.629 4.764.884-1.601 2.053-3.719 2.629-4.764.094-.169.251-.295.437-.348.066-.019.134-.029.202-.029.031-.003.063-.005.095-.005h3.442c.045 0 .089.003.133.01.095-.011.192-.003.286.024.186.053.343.179.436.348.758 1.372 2.537 4.597 3.349 6.068.111.201.138.438.074.658-.063.219-.212.406-.413.516v.001c-.201.11-.437.137-.657.073-.221-.063-.406-.212-.517-.413-.43-.779-1.132-2.052-1.81-3.279v13.632c0 .541-.438.979-.978.979h-.055c-.541 0-.979-.438-.979-.979v-8.602h-1.179v8.587c0 .264-.105.516-.291.703-.187.186-.44.291-.703.291h-.024c-.264 0-.517-.105-.704-.291-.185-.187-.29-.439-.29-.703v-8.93-4.469c-.639 1.158-1.285 2.328-1.689 3.061-.111.201-.296.35-.517.413-.091.026-.184.037-.277.033-.092.004-.185-.007-.276-.033-.22-.063-.406-.212-.516-.413-.431-.78-1.133-2.052-1.811-3.28v4.688h.001v8.945c0 .541-.439.979-.979.979h-.055c-.541 0-.979-.438-.979-.979v-8.602h-1.179v8.587c0 .264-.105.516-.291.703-.186.186-.44.291-.703.291h-.024c-.264 0-.516-.105-.703-.291-.187-.187-.291-.439-.291-.703v-13.399c-.639 1.159-1.285 2.328-1.69 3.061-.111.201-.296.35-.516.413-.091.026-.184.037-.277.033-.092.004-.185-.007-.276-.033-.221-.063-.406-.212-.517-.413-.43-.779-1.132-2.052-1.81-3.279v13.632c0 .541-.438.979-.978.979h-.055c-.54 0-.979-.438-.979-.979v-8.602h-1.179v8.587c0 .264-.104.516-.291.703-.187.186-.44.291-.703.291h-.024c-.264 0-.517-.105-.703-.291-.186-.187-.291-.439-.291-.703v-8.93-4.469c-.639 1.158-1.284 2.328-1.689 3.061-.111.201-.296.35-.517.413-.22.064-.457.037-.657-.073l-.001-.001c-.2-.11-.349-.297-.412-.516-.064-.22-.038-.457.073-.658.813-1.471 2.592-4.696 3.35-6.068.093-.169.25-.295.436-.348.066-.019.134-.029.202-.029zm1.817-5.53c1.299 0 2.354 1.054 2.354 2.354 0 1.299-1.055 2.353-2.354 2.353s-2.354-1.054-2.354-2.353c0-1.3 1.055-2.354 2.354-2.354zm10.289 0c1.299 0 2.353 1.054 2.353 2.354 0 1.299-1.054 2.353-2.353 2.353s-2.354-1.054-2.354-2.353c0-1.3 1.055-2.354 2.354-2.354zm10.289 0c1.299 0 2.353 1.054 2.353 2.354 0 1.299-1.054 2.353-2.353 2.353-1.3 0-2.354-1.054-2.354-2.353 0-1.3 1.054-2.354 2.354-2.354z"
     fill="#ffffff"
     id="path3"
     style="fill:#ffffff;fill-opacity:1" />
</svg>
