<?xml version="1.0" encoding="UTF-8" standalone="no"?>
<svg
   clip-rule="evenodd"
   fill-rule="evenodd"
   stroke-linejoin="round"
   stroke-miterlimit="2"
   viewBox="0 0 48 48"
   version="1.1"
   id="svg3"
   sodipodi:docname="com.system76.CosmicFiles.svg"
   inkscape:version="1.3.2 (091e20ef0f, 2023-11-25)"
   xmlns:inkscape="http://www.inkscape.org/namespaces/inkscape"
   xmlns:sodipodi="http://sodipodi.sourceforge.net/DTD/sodipodi-0.dtd"
   xmlns="http://www.w3.org/2000/svg"
   xmlns:svg="http://www.w3.org/2000/svg">
  <defs
     id="defs3" />
  <sodipodi:namedview
     id="namedview3"
     pagecolor="#ffffff"
     bordercolor="#000000"
     borderopacity="0.25"
     inkscape:showpageshadow="2"
     inkscape:pageopacity="0.0"
     inkscape:pagecheckerboard="0"
     inkscape:deskcolor="#d1d1d1"
     inkscape:zoom="9.2291667"
     inkscape:cx="24"
     inkscape:cy="24"
     inkscape:window-width="1280"
     inkscape:window-height="649"
     inkscape:window-x="1280"
     inkscape:window-y="0"
     inkscape:window-maximized="1"
     inkscape:current-layer="svg3" />
  <linearGradient
     id="a"
     x2="1"
     gradientTransform="matrix(0 -32.5937 29.6469 0 25.0628 40.2224)"
     gradientUnits="userSpaceOnUse">
    <stop
       stop-color="#1075f6"
       offset="0"
       id="stop1"
       style="stop-color:#30a19a;stop-opacity:1;" />
    <stop
       stop-color="#12c5ff"
       offset="1"
       id="stop2"
       style="stop-color:#58a184;stop-opacity:1;" />
  </linearGradient>
  <path
     d="m46.798 12.466c0-1.327-.526-2.598-1.464-3.536s-2.21-1.464-3.536-1.464h-35.596c-1.326 0-2.598.526-3.536 1.464s-1.464 2.209-1.464 3.536v23.073c0 1.326.526 2.597 1.464 3.535s2.21 1.465 3.536 1.465h35.596c1.326 0 2.598-.527 3.536-1.465s1.464-2.209 1.464-3.535z"
     fill="#0083d5"
     id="path2"
     style="fill:#cd4f4c;fill-opacity:1" />
  <path
     d="m46.798 16.201c0-2.761-2.238-5-5-5h-18.524c-1.232 0-2.42-.454-3.337-1.276-.428-.383-.896-.804-1.324-1.187-.917-.822-2.105-1.277-3.337-1.277h-9.074c-1.326 0-2.598.527-3.536 1.465s-1.464 2.209-1.464 3.535v23.078c0 1.326.526 2.597 1.464 3.535s2.21 1.465 3.536 1.465h35.596c2.762 0 5-2.239 5-5z"
     fill="url(#a)"
     id="path3" />
</svg>
